<?xml version="1.0" encoding="iso-8859-1"?>
<!-- Generator: Adobe Illustrator 19.0.0, SVG Export Plug-In . SVG Version: 6.00 Build 0)  -->
<svg version="1.1" id="Layer_1" xmlns="http://www.w3.org/2000/svg" xmlns:xlink="http://www.w3.org/1999/xlink" x="0px" y="0px"
	 viewBox="0 0 360 360" style="enable-background:new 0 0 360 360;" xml:space="preserve">
<g id="XMLID_532_">
	<g>
		<g>
			<path d="M180,0C80.748,0,0,80.748,0,180s80.748,180,180,180s180-80.748,180-180S279.252,0,180,0z M180,340
				c-88.224,0-160-71.775-160-160S91.776,20,180,20s160,71.775,160,160S268.224,340,180,340z"/>
			<path d="M256.887,83.22l-94.565,94.564l-59.209-59.209l-49.497,49.498L162.322,276.78l144.062-144.062L256.887,83.22z
				 M81.9,168.073l21.213-21.213l59.209,59.208l94.565-94.563l21.213,21.213L162.322,248.495L81.9,168.073z"/>
		</g>
	</g>
</g>
<g>
</g>
<g>
</g>
<g>
</g>
<g>
</g>
<g>
</g>
<g>
</g>
<g>
</g>
<g>
</g>
<g>
</g>
<g>
</g>
<g>
</g>
<g>
</g>
<g>
</g>
<g>
</g>
<g>
</g>
</svg>
