<svg width="24" height="24" viewBox="0 0 24 24" fill="none" xmlns="http://www.w3.org/2000/svg">
<mask id="mask0_2003_25" style="mask-type:alpha" maskUnits="userSpaceOnUse" x="0" y="0" width="24" height="24">
<path d="M12 0C18.6274 0 24 5.37258 24 12C24 18.6274 18.6274 24 12 24C5.37258 24 0 18.6274 0 12C0 5.37258 5.37258 0 12 0ZM19.9207 6.24514C19.4579 5.88197 18.8027 5.92232 18.3826 6.3662L10.2301 14.9797L6.81739 11.374C6.35526 10.8858 5.60874 10.8858 5.1466 11.374L5.03202 11.5142C4.68829 12.0032 4.72648 12.6954 5.1466 13.1393L9.40061 17.6338C9.86274 18.1221 10.6093 18.1221 11.0714 17.6338L20.0534 8.13146C20.5155 7.64319 20.5155 6.85446 20.0534 6.3662L19.9207 6.24514Z" fill="white"/>
</mask>
<g mask="url(#mask0_2003_25)">
<path d="M12 0C18.6274 0 24 5.37258 24 12C24 18.6274 18.6274 24 12 24C5.37258 24 0 18.6274 0 12C0 5.37258 5.37258 0 12 0ZM19.9207 6.24514C19.4579 5.88197 18.8027 5.92232 18.3826 6.3662L10.2301 14.9797L6.81739 11.374C6.35526 10.8858 5.60874 10.8858 5.1466 11.374L5.03202 11.5142C4.68829 12.0032 4.72648 12.6954 5.1466 13.1393L9.40061 17.6338C9.86274 18.1221 10.6093 18.1221 11.0714 17.6338L20.0534 8.13146C20.5155 7.64319 20.5155 6.85446 20.0534 6.3662L19.9207 6.24514Z" fill="#000"/>
</g>
</svg>