<?xml version="1.0" encoding="iso-8859-1"?>
<!-- Generator: Adobe Illustrator 19.0.0, SVG Export Plug-In . SVG Version: 6.00 Build 0)  -->
<svg version="1.1" id="Layer_1" xmlns="http://www.w3.org/2000/svg" xmlns:xlink="http://www.w3.org/1999/xlink" x="0px" y="0px"
	 viewBox="0 0 512 512" style="enable-background:new 0 0 512 512;" xml:space="preserve">
<g transform="translate(1 1)">
	<path style="fill:#CCCCCC;" d="M502.467,255c0,136.533-110.933,247.467-247.467,247.467S7.533,391.533,7.533,255
		S118.467,7.533,255,7.533S502.467,118.467,502.467,255"/>
	<path style="fill:#E2E3E5;" d="M476.867,255c0,136.533-98.987,247.467-221.867,247.467S33.133,391.533,33.133,255
		S132.12,7.533,255,7.533S476.867,118.467,476.867,255"/>
	<path style="fill:#FFFFFF;" d="M33.133,255C33.133,118.467,132.12,7.533,255,7.533C118.467,7.533,7.533,118.467,7.533,255
		S118.467,502.467,255,502.467C132.12,502.467,33.133,391.533,33.133,255"/>
	<polygon style="fill:#E0E0E0;" points="41.667,255 229.4,383 229.4,257.56 229.4,127 	"/>
	<path style="fill:#F0F0F0;" d="M172.227,166.253c0,0.853,0,0.853-0.853,1.707c-6.827,9.387-14.507,13.653-25.6,18.773
		c-4.267,3.413-8.533,6.827-12.8,9.387c-26.453,18.773-56.32,34.987-83.627,52.053c-0.853,3.413-1.707,6.827-2.56,11.093
		c23.04,20.48,53.76,38.4,78.507,53.76c27.307,16.213,53.76,31.573,78.507,50.347V142.36
		C192.707,150.04,182.467,158.573,172.227,166.253"/>
	<polygon style="fill:#E0E0E0;" points="229.4,255 417.133,383 417.133,257.56 417.133,127 	"/>
	<path style="fill:#F0F0F0;" d="M359.96,166.253c0,0.853,0,0.853-0.853,1.707c-6.827,9.387-14.507,13.653-25.6,18.773
		c-4.267,3.413-8.533,6.827-12.8,9.387c-26.453,18.773-56.32,34.987-83.627,52.053c-0.853,3.413-1.707,6.827-2.56,11.093
		c23.04,20.48,53.76,38.4,78.507,53.76c27.307,16.213,53.76,31.573,78.507,50.347V142.36
		C380.44,150.04,370.2,158.573,359.96,166.253"/>
	<g>
		<path style="fill:#B6B6B6;" d="M229.4,391.533c-1.707,0-3.413-0.853-5.12-1.707l-187.733-128
			c-1.707-1.707-3.413-4.267-3.413-6.827c0-2.56,1.707-5.12,3.413-6.827l187.733-128c2.56-1.707,5.973-1.707,8.533-0.853
			c2.56,1.707,4.267,4.267,4.267,7.68v256c0,3.413-1.707,5.973-4.267,7.68C231.96,391.533,231.107,391.533,229.4,391.533z
			 M57.027,255l163.84,111.787V143.213L57.027,255z"/>
		<path style="fill:#B6B6B6;" d="M417.133,391.533c-1.707,0-3.413-0.853-5.12-1.707l-187.733-128
			c-1.707-1.707-3.413-4.267-3.413-6.827c0-2.56,1.707-5.12,3.413-6.827l187.733-128c2.56-1.707,5.973-1.707,8.533-0.853
			c2.56,1.707,4.267,4.267,4.267,7.68v256c0,3.413-1.707,5.973-4.267,7.68C419.693,391.533,418.84,391.533,417.133,391.533z
			 M244.76,255L408.6,366.787V143.213L244.76,255z"/>
		<path style="fill:#B6B6B6;" d="M255,511C114.2,511-1,395.8-1,255S114.2-1,255-1s256,115.2,256,256S395.8,511,255,511z M255,16.067
			C123.587,16.067,16.067,123.587,16.067,255S123.587,493.933,255,493.933S493.933,386.413,493.933,255S386.413,16.067,255,16.067z"
			/>
	</g>
</g>
<g>
</g>
<g>
</g>
<g>
</g>
<g>
</g>
<g>
</g>
<g>
</g>
<g>
</g>
<g>
</g>
<g>
</g>
<g>
</g>
<g>
</g>
<g>
</g>
<g>
</g>
<g>
</g>
<g>
</g>
</svg>
