<?xml version="1.0" encoding="iso-8859-1"?>
<!-- Generator: Adobe Illustrator 19.0.0, SVG Export Plug-In . SVG Version: 6.00 Build 0)  -->
<svg xmlns="http://www.w3.org/2000/svg" xmlns:xlink="http://www.w3.org/1999/xlink" version="1.1" id="Layer_1" x="0px" y="0px" viewBox="0 0 502 502" style="enable-background:new 0 0 502 502;" xml:space="preserve" width="512" height="512">
<g>
	<g>
		<circle style="fill:#CCD7EB;" cx="251" cy="251" r="241"/>
		<path d="M251,502c-67.045,0-130.076-26.108-177.483-73.517C26.108,381.076,0,318.045,0,251S26.108,120.924,73.517,73.517    C120.924,26.108,183.955,0,251,0s130.076,26.108,177.483,73.517C475.892,120.924,502,183.955,502,251    s-26.108,130.076-73.517,177.483C381.076,475.892,318.045,502,251,502z M251,20C123.626,20,20,123.626,20,251s103.626,231,231,231    s231-103.626,231-231S378.374,20,251,20z"/>
	</g>
	<g>
		<path d="M432.278,189c-3.977,0-7.737-2.389-9.296-6.309c-19.171-48.226-57.996-86.416-106.52-104.778    c-5.166-1.954-7.769-7.727-5.813-12.892c1.954-5.164,7.727-7.77,12.892-5.813c53.767,20.346,96.785,62.661,118.027,116.095    c2.04,5.133-0.467,10.947-5.599,12.987C434.758,188.771,433.508,189,432.278,189z"/>
	</g>
	<g>
		<path d="M284.011,68.782c-0.558,0-1.123-0.047-1.691-0.145C272.048,66.888,261.511,66,251,66c-5.522,0-10-4.478-10-10    s4.478-10,10-10c11.633,0,23.301,0.983,34.679,2.923c5.444,0.928,9.106,6.093,8.178,11.537    C293.026,65.336,288.796,68.782,284.011,68.782z"/>
	</g>
	<g>
		<g>
			<g>
				<path style="fill:#4D93E8;" d="M269.32,366.68c4.875,0,9.749-1.86,13.468-5.579l96.633-96.633      c7.438-7.438,7.438-19.498,0-26.936l-96.633-96.633c-7.438-7.438-19.498-7.438-26.936,0c-7.438,7.438-7.438,19.498,0,26.936      L339.017,251l-83.165,83.165c-7.438,7.438-7.438,19.498,0,26.936C259.571,364.82,264.445,366.68,269.32,366.68z"/>
				<path d="M269.32,376.68c-7.758,0-15.052-3.021-20.539-8.506c-11.325-11.327-11.325-29.754-0.001-41.079L324.874,251      l-76.094-76.094c-11.324-11.326-11.324-29.753,0-41.078c5.486-5.487,12.781-8.509,20.539-8.509      c7.759,0,15.054,3.021,20.54,8.508l96.633,96.634c11.325,11.325,11.325,29.753,0,41.078l-96.633,96.634      C284.373,373.658,277.079,376.68,269.32,376.68z M269.32,145.324c-2.317,0-4.634,0.882-6.397,2.646      c-3.527,3.527-3.527,9.267,0,12.795l83.165,83.164c3.905,3.905,3.905,10.237,0,14.143l-83.165,83.165      c-3.527,3.527-3.527,9.267,0,12.795c1.708,1.707,3.98,2.648,6.397,2.648s4.688-0.94,6.396-2.649l96.633-96.634      c3.527-3.527,3.527-9.266,0-12.793l-96.633-96.634C273.953,146.206,271.637,145.324,269.32,145.324z"/>
			</g>
		</g>
	</g>
	<g>
		<g>
			<g>
				<path style="fill:#4D93E8;" d="M163.047,366.68c4.875,0,9.749-1.86,13.468-5.579l96.633-96.633      c7.438-7.438,7.438-19.498,0-26.936l-96.633-96.633c-7.438-7.438-19.498-7.438-26.936,0s-7.438,19.498,0,26.936L232.744,251      l-83.165,83.165c-7.438,7.438-7.438,19.498,0,26.936C153.298,364.82,158.172,366.68,163.047,366.68z"/>
				<path d="M163.047,376.68c-7.759,0-15.053-3.021-20.539-8.507c-11.325-11.325-11.325-29.754,0-41.079L218.602,251l-76.094-76.094      c-11.325-11.325-11.325-29.754,0-41.079c5.485-5.486,12.78-8.508,20.539-8.508c7.758,0,15.053,3.021,20.539,8.508l96.634,96.634      c11.323,11.325,11.323,29.753,0,41.077l-96.634,96.635C178.1,373.658,170.806,376.68,163.047,376.68z M163.047,145.319      c-2.416,0-4.688,0.941-6.396,2.649c-1.709,1.71-2.65,3.981-2.65,6.397c0,2.417,0.941,4.688,2.65,6.397l83.165,83.165      c3.905,3.905,3.905,10.237,0,14.143l-83.165,83.165c-3.527,3.527-3.527,9.267,0,12.794c1.708,1.709,3.979,2.649,6.396,2.649      s4.688-0.94,6.396-2.649l96.634-96.634c3.526-3.526,3.526-9.267,0-12.794l-96.634-96.633      C167.734,146.261,165.463,145.319,163.047,145.319z"/>
			</g>
		</g>
	</g>
</g>















</svg>
