<?xml version="1.0" encoding="iso-8859-1"?>
<!-- Generator: Adobe Illustrator 19.0.0, SVG Export Plug-In . SVG Version: 6.00 Build 0)  -->
<svg xmlns="http://www.w3.org/2000/svg" xmlns:xlink="http://www.w3.org/1999/xlink" version="1.1" id="Layer_1" x="0px" y="0px" viewBox="0 0 502 502" style="enable-background:new 0 0 502 502;" xml:space="preserve" width="512" height="512">
<g>
	<g>
		<circle style="fill:#CCD7EB;" cx="251" cy="251" r="241"/>
		<path d="M251,502c-67.044,0-130.076-26.108-177.484-73.517C26.108,381.076,0,318.045,0,251S26.108,120.924,73.516,73.517    C120.924,26.108,183.956,0,251,0c67.045,0,130.076,26.108,177.483,73.517C475.892,120.924,502,183.955,502,251    s-26.108,130.076-73.517,177.483C381.076,475.892,318.045,502,251,502z M251,20C123.626,20,20,123.626,20,251s103.626,231,231,231    s231-103.626,231-231S378.374,20,251,20z"/>
	</g>
	<g>
		<path d="M432.278,189c-3.977,0-7.737-2.389-9.296-6.309c-19.171-48.226-57.996-86.416-106.52-104.778    c-5.166-1.954-7.769-7.727-5.813-12.892c1.954-5.164,7.727-7.77,12.892-5.813c53.767,20.346,96.785,62.661,118.027,116.095    c2.04,5.133-0.467,10.947-5.599,12.987C434.758,188.771,433.508,189,432.278,189z"/>
	</g>
	<g>
		<path d="M284.011,68.782c-0.558,0-1.123-0.047-1.691-0.145C272.048,66.888,261.511,66,251,66c-5.523,0-10-4.478-10-10    s4.477-10,10-10c11.633,0,23.301,0.983,34.679,2.923c5.444,0.928,9.106,6.093,8.178,11.537    C293.026,65.336,288.796,68.782,284.011,68.782z"/>
	</g>
	<g>
		<g>
			<g>
				<path style="fill:#4D93E8;" d="M232.68,366.68c-4.875,0-9.749-1.86-13.468-5.579l-96.633-96.633      c-7.438-7.438-7.438-19.498,0-26.936l96.633-96.633c7.438-7.438,19.498-7.438,26.936,0s7.438,19.498,0,26.936L162.983,251      l83.165,83.165c7.438,7.438,7.438,19.498,0,26.936C242.429,364.82,237.555,366.68,232.68,366.68z"/>
				<path d="M232.68,376.68c-7.758,0-15.053-3.021-20.539-8.507l-96.634-96.634c-11.324-11.325-11.324-29.753,0-41.078      l96.633-96.634c5.486-5.486,12.781-8.508,20.54-8.508s15.053,3.021,20.539,8.508c11.325,11.326,11.325,29.753,0,41.079      L177.125,251l76.094,76.094c11.325,11.326,11.325,29.753,0,41.079C247.732,373.658,240.438,376.68,232.68,376.68z       M232.68,145.319c-2.417,0-4.688,0.941-6.397,2.65l-96.633,96.634c-3.527,3.526-3.527,9.266,0,12.793l96.633,96.634      c1.708,1.708,3.98,2.649,6.397,2.649s4.688-0.941,6.397-2.649c3.527-3.527,3.527-9.267,0-12.794l-83.165-83.165      c-3.905-3.905-3.905-10.237,0-14.143l83.165-83.165c3.527-3.527,3.527-9.267,0-12.794      C237.368,146.261,235.097,145.319,232.68,145.319z"/>
			</g>
		</g>
	</g>
	<g>
		<g>
			<g>
				<path style="fill:#4D93E8;" d="M338.953,366.68c-4.875,0-9.749-1.86-13.468-5.579l-96.633-96.633      c-7.438-7.438-7.438-19.498,0-26.936l96.633-96.633c7.438-7.438,19.498-7.438,26.936,0s7.438,19.498,0,26.936L269.256,251      l83.165,83.165c7.438,7.438,7.438,19.498,0,26.936C348.702,364.82,343.828,366.68,338.953,366.68z"/>
				<path d="M338.953,376.68c-7.759,0-15.053-3.021-20.539-8.507l-96.633-96.634c-11.325-11.325-11.325-29.753,0-41.078      l96.633-96.634c5.486-5.486,12.781-8.508,20.539-8.508c7.759,0,15.054,3.021,20.539,8.509c11.325,11.324,11.325,29.753,0,41.078      L283.398,251l76.094,76.094c11.325,11.325,11.325,29.754,0,41.079C354.006,373.658,346.712,376.68,338.953,376.68z       M338.953,145.319c-2.416,0-4.688,0.941-6.396,2.65l-96.633,96.634c-3.527,3.527-3.527,9.266,0,12.793l96.633,96.634      c1.708,1.709,3.979,2.649,6.396,2.649s4.688-0.94,6.396-2.649c3.527-3.527,3.527-9.267,0-12.794l-83.165-83.165      c-3.905-3.905-3.905-10.237,0-14.143l83.165-83.165c1.709-1.709,2.65-3.98,2.65-6.397c0-2.416-0.941-4.688-2.65-6.396      S341.369,145.319,338.953,145.319z"/>
			</g>
		</g>
	</g>
</g>















</svg>
