<?xml version="1.0" encoding="iso-8859-1"?>
<!-- Generator: Adobe Illustrator 19.0.0, SVG Export Plug-In . SVG Version: 6.00 Build 0)  -->
<svg version="1.1" id="Layer_1" xmlns="http://www.w3.org/2000/svg" xmlns:xlink="http://www.w3.org/1999/xlink" x="0px" y="0px"
	 viewBox="0 0 512 512" style="enable-background:new 0 0 512 512;" xml:space="preserve">
<g>
	<g>
		<path d="M301.697,491.922H90.785c-11.025,0-21.029-9.649-21.029-20.669V39.39c0-11.02,10.005-19.311,21.029-19.311h210.912
			c5.544,0,10.039-4.49,10.039-10.039C311.736,4.49,307.24,0,301.697,0H90.785C68.692,0,49.677,17.292,49.677,39.39v431.863
			C49.677,493.35,68.692,512,90.785,512h210.912c5.544,0,10.039-4.49,10.039-10.039S307.24,491.922,301.697,491.922z"/>
	</g>
</g>
<g>
	<g>
		<path d="M459.745,243.586l-90.353-100.392c-3.711-4.127-10.059-4.451-14.176-0.745c-4.123,3.706-4.456,10.4-0.745,14.517
			l75.272,83.976H201.304c-5.544,0-10.039,4.49-10.039,10.039c0,5.549,4.495,10.039,10.039,10.039h226.745l-73.216,72.877
			c-3.922,3.922-3.922,10.103,0,14.025c1.961,1.961,4.529,2.858,7.098,2.858c2.569,0,5.137-1.022,7.098-2.983l90.353-90.375
			C463.157,253.647,463.319,247.556,459.745,243.586z"/>
	</g>
</g>
<g>
</g>
<g>
</g>
<g>
</g>
<g>
</g>
<g>
</g>
<g>
</g>
<g>
</g>
<g>
</g>
<g>
</g>
<g>
</g>
<g>
</g>
<g>
</g>
<g>
</g>
<g>
</g>
<g>
</g>
</svg>
