<?xml version="1.0" encoding="iso-8859-1"?>
<!-- Generator: Adobe Illustrator 19.0.0, SVG Export Plug-In . SVG Version: 6.00 Build 0)  -->
<svg xmlns="http://www.w3.org/2000/svg" xmlns:xlink="http://www.w3.org/1999/xlink" version="1.1" id="Layer_1" x="0px" y="0px" viewBox="0 0 502 502" style="enable-background:new 0 0 502 502;" xml:space="preserve" width="512" height="512">
<g>
	<g>
		<circle style="fill:#CCD7EB;" cx="251" cy="251" r="241"/>
		<path d="M251,502c-67.045,0-130.076-26.108-177.483-73.516C26.108,381.076,0,318.044,0,251S26.108,120.924,73.517,73.516    C120.924,26.108,183.955,0,251,0s130.076,26.108,177.483,73.516C475.892,120.924,502,183.956,502,251    s-26.108,130.076-73.517,177.484C381.076,475.892,318.045,502,251,502z M251,20C123.626,20,20,123.626,20,251s103.626,231,231,231    s231-103.626,231-231S378.374,20,251,20z"/>
	</g>
	<g>
		<path d="M432.278,189c-3.977,0-7.737-2.388-9.296-6.308c-19.171-48.226-57.996-86.417-106.52-104.779    c-5.166-1.955-7.769-7.727-5.813-12.892s7.726-7.768,12.892-5.813c53.766,20.346,96.785,62.661,118.027,116.095    c2.04,5.132-0.467,10.947-5.599,12.987C434.758,188.771,433.508,189,432.278,189z"/>
	</g>
	<g>
		<path d="M284.011,68.782c-0.558,0-1.123-0.047-1.692-0.144C272.049,66.888,261.512,66,251,66c-5.522,0-10-4.477-10-10    s4.478-10,10-10c11.635,0,23.302,0.983,34.68,2.923c5.444,0.928,9.105,6.094,8.177,11.539    C293.025,65.337,288.796,68.782,284.011,68.782z"/>
	</g>
	<g>
		<g>
			<path style="fill:#4D93E8;" d="M201.566,367.8L201.566,367.8c-13.651,0-24.717-11.066-24.717-24.717V158.917     c0-13.651,11.066-24.717,24.717-24.717h0c13.651,0,24.717,11.066,24.717,24.717v184.166     C226.283,356.734,215.217,367.8,201.566,367.8z"/>
			<path d="M201.566,377.8c-19.144,0-34.718-15.574-34.718-34.717V158.917c0-19.143,15.574-34.717,34.718-34.717     c19.143,0,34.717,15.574,34.717,34.717v184.166C236.283,362.226,220.709,377.8,201.566,377.8z M201.566,144.2     c-8.115,0-14.718,6.602-14.718,14.717v184.166c0,8.115,6.603,14.717,14.718,14.717s14.717-6.602,14.717-14.717V158.917     C216.283,150.802,209.682,144.2,201.566,144.2z"/>
		</g>
		<g>
			<path style="fill:#4D93E8;" d="M300.434,367.8L300.434,367.8c-13.651,0-24.717-11.066-24.717-24.717V158.917     c0-13.651,11.066-24.717,24.717-24.717h0c13.651,0,24.717,11.066,24.717,24.717v184.166     C325.151,356.734,314.085,367.8,300.434,367.8z"/>
			<path d="M300.434,377.8c-19.143,0-34.717-15.574-34.717-34.717V158.917c0-19.143,15.574-34.717,34.717-34.717     c19.144,0,34.718,15.574,34.718,34.717v184.166C335.151,362.226,319.577,377.8,300.434,377.8z M300.434,144.2     c-8.115,0-14.717,6.602-14.717,14.717v184.166c0,8.115,6.602,14.717,14.717,14.717s14.718-6.602,14.718-14.717V158.917     C315.151,150.802,308.549,144.2,300.434,144.2z"/>
		</g>
	</g>
</g>















</svg>
