<?xml version="1.0" encoding="iso-8859-1"?>
<!-- Generator: Adobe Illustrator 19.0.0, SVG Export Plug-In . SVG Version: 6.00 Build 0)  -->
<svg version="1.1" id="Layer_1" xmlns="http://www.w3.org/2000/svg" xmlns:xlink="http://www.w3.org/1999/xlink" x="0px" y="0px"
	 viewBox="0 0 512 512" style="enable-background:new 0 0 512 512;" xml:space="preserve">
<g transform="translate(1 1)">
	<path style="fill:#CCCCCC;" d="M502.467,255c0,136.533-110.933,247.467-247.467,247.467S7.533,391.533,7.533,255
		S118.467,7.533,255,7.533S502.467,118.467,502.467,255"/>
	<path style="fill:#E2E3E5;" d="M476.867,255c0,136.533-98.987,247.467-221.867,247.467S33.133,391.533,33.133,255
		S132.12,7.533,255,7.533S476.867,118.467,476.867,255"/>
	<path style="fill:#FFFFFF;" d="M33.133,255C33.133,118.467,132.12,7.533,255,7.533C118.467,7.533,7.533,118.467,7.533,255
		S118.467,502.467,255,502.467C132.12,502.467,33.133,391.533,33.133,255"/>
	<polygon style="fill:#E0E0E0;" points="289.133,383 340.333,383 340.333,127 289.133,127 	"/>
	<polygon style="fill:#F0F0F0;" points="289.133,383 314.733,383 314.733,127 289.133,127 	"/>
	<polygon style="fill:#E0E0E0;" points="169.667,383 220.867,383 220.867,127 169.667,127 	"/>
	<polygon style="fill:#F0F0F0;" points="169.667,383 195.267,383 195.267,127 169.667,127 	"/>
	<g>
		<path style="fill:#B6B6B6;" d="M255,511C114.2,511-1,395.8-1,255S114.2-1,255-1s256,115.2,256,256S395.8,511,255,511z M255,16.067
			C123.587,16.067,16.067,123.587,16.067,255S123.587,493.933,255,493.933S493.933,386.413,493.933,255S386.413,16.067,255,16.067z"
			/>
		<path style="fill:#B6B6B6;" d="M340.333,391.533h-51.2c-5.12,0-8.533-3.413-8.533-8.533V127c0-5.12,3.413-8.533,8.533-8.533h51.2
			c5.12,0,8.533,3.413,8.533,8.533v256C348.867,388.12,345.453,391.533,340.333,391.533z M297.667,374.467H331.8V135.533h-34.133
			V374.467z"/>
		<path style="fill:#B6B6B6;" d="M220.867,391.533h-51.2c-5.12,0-8.533-3.413-8.533-8.533V127c0-5.12,3.413-8.533,8.533-8.533h51.2
			c5.12,0,8.533,3.413,8.533,8.533v256C229.4,388.12,225.987,391.533,220.867,391.533z M178.2,374.467h34.133V135.533H178.2V374.467
			z"/>
	</g>
</g>
<g>
</g>
<g>
</g>
<g>
</g>
<g>
</g>
<g>
</g>
<g>
</g>
<g>
</g>
<g>
</g>
<g>
</g>
<g>
</g>
<g>
</g>
<g>
</g>
<g>
</g>
<g>
</g>
<g>
</g>
</svg>
