<?xml version="1.0" encoding="iso-8859-1"?>
<!-- Generator: Adobe Illustrator 19.0.0, SVG Export Plug-In . SVG Version: 6.00 Build 0)  -->
<svg version="1.1" id="Layer_1" xmlns="http://www.w3.org/2000/svg" xmlns:xlink="http://www.w3.org/1999/xlink" x="0px" y="0px"
	 viewBox="0 0 512 512" style="enable-background:new 0 0 512 512;" xml:space="preserve">
<g transform="translate(1 1)">
	<path style="fill:#CCCCCC;" d="M502.467,255c0,136.533-110.933,247.467-247.467,247.467S7.533,391.533,7.533,255
		S118.467,7.533,255,7.533S502.467,118.467,502.467,255"/>
	<path style="fill:#E2E3E5;" d="M476.867,255c0,136.533-98.987,247.467-221.867,247.467S33.133,391.533,33.133,255
		S132.12,7.533,255,7.533S476.867,118.467,476.867,255"/>
	<path style="fill:#FFFFFF;" d="M33.133,255C33.133,118.467,132.12,7.533,255,7.533C118.467,7.533,7.533,118.467,7.533,255
		S118.467,502.467,255,502.467C132.12,502.467,33.133,391.533,33.133,255"/>
	<path style="fill:#B6B6B6;" d="M255,511C114.2,511-1,395.8-1,255S114.2-1,255-1s256,115.2,256,256S395.8,511,255,511z M255,16.067
		C123.587,16.067,16.067,123.587,16.067,255S123.587,493.933,255,493.933S493.933,386.413,493.933,255S386.413,16.067,255,16.067z"
		/>
	<polygon style="fill:#E0E0E0;" points="383,255 195.267,383 195.267,257.56 195.267,127 	"/>
	<path style="fill:#F0F0F0;" d="M361.667,247.32c-14.507-23.04-58.027-43.52-81.92-59.733c-20.48-13.653-40.96-23.893-59.733-39.253
		v220.16c5.12-3.413,11.093-5.973,16.213-9.387c-1.707-4.267,0-9.387,3.413-11.093s6.827-2.56,11.093-3.413c1.707,0,3.413,0,4.267,0
		c17.067-15.36,33.28-31.573,53.76-42.667c0.853,0,0.853,0,1.707-0.853c0.853-0.853,0.853-0.853,1.707-1.707
		c11.093-6.827,23.04-12.8,34.987-18.773c-1.707-3.413-0.853-8.533,3.413-11.093c5.12-3.413,11.093-5.973,17.067-6.827
		c0.853,0,1.707,0,2.56,0C373.613,255,370.2,249.88,361.667,247.32"/>
	<path style="fill:#B6B6B6;" d="M195.267,391.533c-1.707,0-2.56,0-4.267-0.853c-2.56-1.707-4.267-4.267-4.267-7.68V127
		c0-3.413,1.707-5.973,4.267-7.68c2.56-1.707,5.973-0.853,8.533,0.853l187.733,128c2.56,1.707,3.413,4.267,3.413,6.827
		c0,2.56-1.707,5.12-3.413,6.827l-187.733,128C198.68,390.68,196.973,391.533,195.267,391.533z M203.8,143.213v223.573L367.64,255
		L203.8,143.213z"/>
</g>
<g>
</g>
<g>
</g>
<g>
</g>
<g>
</g>
<g>
</g>
<g>
</g>
<g>
</g>
<g>
</g>
<g>
</g>
<g>
</g>
<g>
</g>
<g>
</g>
<g>
</g>
<g>
</g>
<g>
</g>
</svg>
