<svg width="24" height="24" viewBox="0 0 24 24" fill="none" xmlns="http://www.w3.org/2000/svg">
<path fill-rule="evenodd" clip-rule="evenodd" d="M24 12C24 18.6274 18.6274 24 12 24C5.37258 24 0 18.6274 0 12C0 5.37258 5.37258 0 12 0C18.6274 0 24 5.37258 24 12ZM13.5 4.5C13.5 5.32843 12.8284 6 12 6C11.1716 6 10.5 5.32843 10.5 4.5C10.5 3.67157 11.1716 3 12 3C12.8284 3 13.5 3.67157 13.5 4.5ZM12 22C12.6572 22 13.19 21.4672 13.19 20.81L13.19 9.19C13.19 8.53278 12.6572 8 12 8C11.3428 8 10.81 8.53278 10.81 9.19L10.81 20.81C10.81 21.4672 11.3428 22 12 22Z" fill="white"/>
</svg>
