<?xml version="1.0" standalone="no"?>
<!DOCTYPE svg PUBLIC "-//W3C//DTD SVG 20010904//EN"
 "http://www.w3.org/TR/2001/REC-SVG-20010904/DTD/svg10.dtd">
<svg version="1.0" xmlns="http://www.w3.org/2000/svg"
 width="300.000000pt" height="298.000000pt" viewBox="0 0 300.000000 298.000000"
 preserveAspectRatio="xMidYMid meet">

<g transform="translate(0.000000,298.000000) scale(0.100000,-0.100000)"
fill="#000" stroke="none">
<path d="M1279 2872 c-493 -82 -888 -473 -975 -965 -18 -106 -18 -301 1 -408
66 -378 317 -705 666 -868 437 -205 967 -119 1317 213 483 459 493 1226 22
1696 -269 270 -656 394 -1031 332z m371 -297 c150 -34 324 -135 426 -248 119
-132 213 -338 214 -469 0 -32 5 -39 44 -62 67 -39 89 -83 94 -187 5 -97 -6
-144 -45 -190 -68 -81 -198 -85 -270 -7 -38 40 -53 91 -53 181 0 68 4 92 23
128 21 39 66 80 99 91 16 6 -16 162 -48 235 -61 137 -175 268 -298 342 -31 18
-95 47 -143 64 -82 29 -97 31 -228 32 -157 0 -206 -11 -333 -73 -209 -103
-362 -316 -396 -553 -7 -45 -6 -46 33 -72 56 -37 74 -77 79 -172 7 -127 -25
-202 -101 -242 -40 -20 -124 -20 -164 0 -71 37 -103 104 -103 218 0 111 31
173 105 209 40 19 45 26 45 54 0 18 9 68 20 112 112 440 554 709 1000 609z
m64 -445 c8 -8 16 -28 18 -45 l3 -30 -150 0 c-148 0 -150 0 -153 22 -2 14 7
33 23 49 25 25 29 26 135 22 81 -2 113 -7 124 -18z m16 -425 l0 -266 -147 3
-148 3 -3 263 -2 262 150 0 150 0 0 -265z m-366 189 c9 -8 16 -29 16 -45 l0
-29 -120 0 c-118 0 -120 0 -120 23 0 12 7 33 16 45 14 20 24 22 104 22 67 0
92 -4 104 -16z m-416 -120 c21 -15 22 -20 22 -198 0 -196 -3 -206 -51 -206
-52 0 -59 26 -59 212 0 155 2 170 20 188 24 24 38 25 68 4z m1072 -4 c18 -18
20 -33 20 -188 0 -186 -7 -212 -59 -212 -48 0 -51 10 -51 206 0 178 1 183 22
198 30 21 44 20 68 -4z m-640 -180 l0 -151 -117 3 -118 3 -3 148 -3 147 121 0
120 0 0 -150z m0 -275 l0 -45 -120 0 -120 0 0 45 0 45 120 0 120 0 0 -45z
m350 0 l0 -45 -150 0 -150 0 0 38 c0 21 3 42 7 45 3 4 71 7 150 7 l143 0 0
-45z m110 -105 c27 -14 35 -65 16 -95 l-16 -25 -380 0 c-331 0 -381 2 -394 16
-21 20 -20 73 1 96 15 17 40 18 385 18 225 0 377 -4 388 -10z"/>
<path d="M1011 428 c-1 -10 -7 -18 -13 -18 -10 0 -10 -2 -1 -8 6 -4 13 -21 15
-37 2 -21 9 -31 23 -33 18 -2 18 -2 3 8 -20 13 -24 60 -5 60 8 0 9 3 1 8 -6 4
-14 14 -17 22 -4 12 -6 11 -6 -2z"/>
<path d="M1151 388 c-1 -50 1 -58 18 -58 43 0 54 57 14 75 -12 5 -24 16 -27
25 -2 8 -4 -11 -5 -42z m37 -35 c-16 -15 -18 -15 -24 0 -3 9 -3 25 0 34 6 15
8 15 24 0 15 -16 15 -18 0 -34z"/>
<path d="M1220 401 c0 -22 3 -46 6 -55 12 -32 19 -15 16 39 -4 63 -22 76 -22
16z"/>
<path d="M1592 429 c-1 -9 -13 -20 -27 -23 -20 -5 -25 -13 -25 -36 0 -23 5
-31 25 -36 37 -9 40 -3 34 56 -3 30 -6 48 -7 39z m-7 -59 c0 -13 -6 -25 -12
-27 -16 -6 -27 21 -19 43 9 23 31 11 31 -16z"/>
<path d="M1741 388 c-1 -50 1 -58 18 -58 43 0 54 57 14 75 -12 5 -24 16 -27
25 -2 8 -4 -11 -5 -42z m44 -18 c0 -27 -22 -39 -31 -16 -8 22 3 49 19 43 6 -2
12 -14 12 -27z"/>
<path d="M1973 385 c0 -33 2 -50 4 -37 5 27 20 29 28 2 3 -11 13 -20 21 -20
13 0 13 2 0 16 -10 10 -14 25 -10 42 4 23 3 24 -6 10 -17 -27 -28 -22 -33 15
-2 17 -4 5 -4 -28z"/>
<path d="M2090 391 c0 -28 5 -53 10 -56 6 -4 10 15 10 49 0 31 -4 56 -10 56
-5 0 -10 -22 -10 -49z"/>
<path d="M2130 429 c0 -5 5 -7 10 -4 6 3 10 8 10 11 0 2 -4 4 -10 4 -5 0 -10
-5 -10 -11z"/>
<path d="M2171 387 c-1 -58 -1 -58 27 -55 24 3 27 7 27 38 0 28 -4 36 -22 38
-12 2 -24 11 -26 20 -3 9 -5 -9 -6 -41z m44 -17 c0 -13 -6 -25 -12 -27 -16 -6
-27 21 -19 43 9 23 31 11 31 -16z"/>
<path d="M451 406 c-1 -5 4 -27 11 -49 11 -35 10 -41 -7 -53 -17 -13 -17 -14
-1 -14 18 0 40 43 50 96 l6 29 -12 -27 c-7 -16 -15 -28 -18 -28 -3 0 -11 12
-17 28 -6 15 -11 23 -12 18z"/>
<path d="M534 396 c-3 -8 -4 -25 -2 -38 2 -17 9 -23 28 -23 20 0 26 6 28 29 5
39 -41 66 -54 32z m41 -26 c0 -27 -22 -39 -31 -16 -8 22 3 49 19 43 6 -2 12
-14 12 -27z"/>
<path d="M603 375 c2 -37 4 -40 32 -42 30 -1 30 0 26 40 l-5 42 -5 -35 c-4
-22 -12 -35 -21 -35 -9 0 -18 13 -22 35 l-6 35 1 -40z"/>
<path d="M681 368 c2 -30 3 -35 6 -16 2 15 14 35 26 43 21 15 21 15 -6 15 -25
0 -27 -3 -26 -42z"/>
<path d="M788 353 c-4 -61 -1 -81 8 -47 3 11 15 24 27 29 40 18 29 75 -13 75
-15 0 -19 -10 -22 -57z m40 0 c-16 -15 -18 -15 -24 0 -3 9 -3 25 0 34 6 15 8
15 24 0 15 -16 15 -18 0 -34z"/>
<path d="M864 396 c-3 -8 -4 -25 -2 -38 2 -17 9 -23 28 -23 22 0 25 4 25 35 0
29 -4 36 -23 38 -13 2 -24 -3 -28 -12z m41 -26 c0 -13 -6 -25 -12 -27 -16 -6
-27 21 -19 43 9 23 31 11 31 -16z"/>
<path d="M941 368 c2 -34 3 -37 6 -13 2 17 12 36 21 43 14 11 13 12 -6 12 -19
0 -22 -5 -21 -42z"/>
<path d="M1064 396 c-3 -8 -4 -25 -2 -38 2 -18 10 -23 33 -25 29 -1 30 0 27
38 -4 34 -7 39 -28 39 -14 0 -27 -6 -30 -14z m40 -11 c7 -18 -2 -45 -15 -45
-5 0 -12 7 -15 15 -7 18 2 45 15 45 5 0 11 -7 15 -15z"/>
<path d="M1272 398 c-25 -25 -6 -68 30 -68 10 0 18 4 18 9 0 5 -7 8 -16 7 -9
0 -19 5 -21 12 -3 7 5 12 22 12 23 0 24 2 15 20 -12 23 -30 26 -48 8z m33 -8
c3 -5 -1 -10 -10 -10 -9 0 -13 5 -10 10 3 6 8 10 10 10 2 0 7 -4 10 -10z"/>
<path d="M1384 396 c-3 -8 -4 -25 -2 -38 2 -18 10 -23 33 -25 29 -1 30 0 27
38 -4 34 -7 39 -28 39 -14 0 -27 -6 -30 -14z m40 -11 c7 -18 -2 -45 -15 -45
-13 0 -22 27 -15 45 3 8 10 15 15 15 5 0 11 -7 15 -15z"/>
<path d="M1463 375 c2 -37 4 -40 32 -42 30 -1 30 0 26 40 l-5 42 -5 -35 c-4
-22 -12 -35 -21 -35 -9 0 -18 13 -22 35 l-6 35 1 -40z"/>
<path d="M1630 370 c0 -22 3 -40 8 -40 4 0 6 18 4 40 -2 22 -6 40 -8 40 -2 0
-4 -18 -4 -40z"/>
<path d="M1664 396 c-3 -8 -4 -25 -2 -38 2 -17 9 -23 28 -23 22 0 25 4 25 35
0 29 -4 36 -23 38 -13 2 -24 -3 -28 -12z m41 -26 c0 -27 -22 -39 -31 -16 -8
22 3 49 19 43 6 -2 12 -14 12 -27z"/>
<path d="M1820 391 c-13 -26 4 -64 27 -59 25 5 40 35 27 56 -16 25 -41 26 -54
3z m38 -38 c-16 -15 -18 -15 -24 0 -3 9 -3 25 0 34 6 15 8 15 24 0 15 -16 15
-18 0 -34z"/>
<path d="M1902 398 c-23 -23 -7 -68 25 -68 21 0 35 37 23 60 -12 23 -30 26
-48 8z m38 -28 c0 -26 -15 -33 -30 -15 -10 12 -10 18 0 30 15 18 30 11 30 -15z"/>
<path d="M2130 377 c0 -20 4 -38 9 -42 6 -3 7 10 4 32 -8 50 -13 55 -13 10z"/>
<path d="M2251 368 c2 -42 2 -43 8 -9 4 21 14 37 26 42 17 7 16 8 -7 8 -26 1
-28 -1 -27 -41z"/>
<path d="M2323 403 c-19 -7 -16 -60 3 -67 39 -15 50 -8 46 34 -4 40 -15 47
-49 33z m32 -33 c0 -27 -22 -39 -31 -16 -8 22 3 49 19 43 6 -2 12 -14 12 -27z"/>
<path d="M2401 368 c2 -34 3 -37 6 -13 2 17 12 36 21 43 14 11 13 12 -6 12
-19 0 -22 -5 -21 -42z"/>
<path d="M2461 406 c-1 -5 4 -27 11 -49 11 -35 10 -41 -7 -53 -17 -13 -17 -14
-1 -14 18 0 40 43 50 96 l6 29 -12 -27 c-7 -16 -15 -28 -18 -28 -3 0 -11 12
-17 28 -6 15 -11 23 -12 18z"/>
</g>
</svg>
